<svg width="106" height="31" viewBox="0 0 106 31" fill="none" xmlns="http://www.w3.org/2000/svg">
<g id="going">
<path id="Vector" d="M105.5 22.5199C105.5 24.1001 105.385 25.2387 105.155 25.9359C104.786 27.1907 104.027 28.1784 102.876 28.8987C100.988 30.1536 98.3286 30.781 94.8983 30.781C92.5271 30.781 90.5817 30.4673 89.0622 29.8399C88.6018 29.6772 88.1298 29.4332 87.6463 29.1079C87.278 28.8523 86.9327 28.5502 86.6103 28.2016C85.8736 27.3418 85.4592 26.1334 85.3672 24.5764L88.8205 24.437C88.8435 25.4363 89.1773 26.1915 89.8219 26.7027C90.927 27.5625 92.7458 27.9925 95.2782 27.9925C98.7545 27.9925 100.953 27.1443 101.874 25.4479C102.196 24.8669 102.358 23.9606 102.358 22.729V20.777C101.759 21.265 101.218 21.6601 100.734 21.9622C98.9387 23.1008 96.8207 23.6702 94.3803 23.6702C93.9429 23.6702 93.4594 23.6353 92.9299 23.5656C92.4004 23.4959 91.7098 23.3564 90.8579 23.1473C90.0061 22.9382 89.1543 22.5664 88.3025 22.0319C87.4507 21.4742 86.737 20.8003 86.1614 20.0102C85.1254 18.5926 84.6074 16.9311 84.6074 15.0256C84.6074 13.8404 84.7916 12.7483 85.16 11.749C85.4823 10.8892 85.9082 10.1224 86.4377 9.44845C86.9902 8.77454 87.6003 8.25168 88.2679 7.87987C88.9356 7.48483 89.5687 7.17111 90.1673 6.93873C90.7889 6.68311 91.445 6.50883 92.1357 6.41587C92.8263 6.29968 93.3443 6.22997 93.6897 6.20673C94.035 6.18349 94.3918 6.17188 94.7602 6.17188C97.1545 6.17188 99.238 6.64826 101.011 7.60102C101.195 7.71721 101.644 8.0193 102.358 8.5073V6.48559H105.5V22.5199ZM102.288 14.7816C102.288 13.8521 102.07 12.969 101.632 12.1324C101.034 10.9938 100.113 10.1572 98.8697 9.62273C97.6265 9.06502 96.3027 8.8094 94.8983 8.85587C92.9645 8.90235 91.3299 9.46007 89.9946 10.529C88.6823 11.598 88.0262 13.0852 88.0262 14.9907C88.0262 15.8041 88.1643 16.5361 88.4406 17.1867C88.7859 18.0233 89.2809 18.7204 89.9255 19.2782C90.5702 19.8359 91.2723 20.2193 92.0321 20.4284C92.7918 20.6144 93.3789 20.7422 93.7933 20.8119C94.2307 20.8584 94.6451 20.8816 95.0365 20.8816C96.7862 20.8816 98.2826 20.4865 99.5258 19.6964C101.368 18.4881 102.288 16.8498 102.288 14.7816Z" fill="black"/>
<path id="Vector_2" d="M80.342 23.4963H77.0959V14.5032C77.0959 13.318 76.9463 12.3885 76.647 11.7146C75.8182 9.78586 73.8843 8.82148 70.8454 8.82148C69.7173 8.82148 68.6237 9.00738 67.5647 9.37919C65.9071 10.0531 64.8251 11.064 64.3186 12.4118C64.0423 13.1321 63.9042 14.1314 63.9042 15.4095V23.4963H60.6235V6.48605H63.9042V8.54262C64.8251 7.77576 65.6769 7.22967 66.4597 6.90433C67.9101 6.30014 69.5677 5.99805 71.4324 5.99805C73.4814 5.99805 75.2426 6.38148 76.716 7.14833C78.2125 7.91519 79.237 8.94929 79.7895 10.2506C80.1579 11.1337 80.342 12.4815 80.342 14.294V23.4963Z" fill="black"/>
<path id="Vector_3" d="M55.1675 3.62753H51.9214V0.28125H55.1675V3.62753ZM55.2366 23.4961H51.9559V6.48582H55.2366V23.4961Z" fill="black"/>
<path id="Vector_4" d="M47.6906 15.0605C47.6906 16.7104 47.2992 18.1744 46.5164 19.4525C45.7797 20.6609 44.5941 21.7299 42.9595 22.6594C41.3249 23.5657 39.2529 24.0188 36.7435 24.0188C35.0629 24.0188 33.5549 23.8213 32.2197 23.4262C31.8053 23.31 31.3794 23.159 30.9419 22.9731C30.5045 22.7872 29.952 22.4735 29.2843 22.032C28.6167 21.5672 28.0296 21.0676 27.5231 20.5331C27.0397 19.9754 26.6138 19.2434 26.2454 18.3371C25.877 17.4076 25.6929 16.4083 25.6929 15.3394C25.6929 13.6198 26.1303 12.0512 27.0051 10.6337C27.6498 9.61119 28.4555 8.763 29.4225 8.0891C30.4124 7.41519 31.4254 6.95043 32.4614 6.69481C33.4974 6.43919 34.3147 6.27652 34.9133 6.20681C35.5118 6.11386 36.0874 6.06738 36.6399 6.06738C39.0112 6.06738 41.0717 6.48567 42.8214 7.32224C43.443 7.6011 44.0185 7.96129 44.548 8.40281C45.0315 8.79786 45.5035 9.26262 45.9639 9.7971C47.115 11.2146 47.6906 12.9691 47.6906 15.0605ZM44.4099 14.9908C44.4099 13.8986 44.1451 12.911 43.6156 12.028C42.3264 9.86681 39.9551 8.78624 36.5018 8.78624C34.2226 8.83272 32.4038 9.44852 31.0455 10.6337C29.6872 11.7956 29.0081 13.2944 29.0081 15.1302C29.0081 16.3386 29.3419 17.4076 30.0095 18.3371C31.4369 20.2891 33.7391 21.2651 36.9162 21.2651C38.7119 21.2651 40.2889 20.8236 41.6472 19.9405C43.489 18.7786 44.4099 17.1287 44.4099 14.9908Z" fill="black"/>
<path id="Vector_5" d="M21.3926 22.5199C21.3926 24.1001 21.2775 25.2387 21.0473 25.9359C20.6789 27.1907 19.9192 28.1784 18.7681 28.8987C16.8803 30.1536 14.2212 30.781 10.7909 30.781C8.41963 30.781 6.47425 30.4673 4.95479 29.8399C4.49435 29.6772 4.02239 29.4332 3.53893 29.1079C3.17057 28.8523 2.82524 28.5502 2.50293 28.2016C1.76622 27.3418 1.35182 26.1334 1.25973 24.5764L4.71306 24.437C4.73608 25.4363 5.0699 26.1915 5.71452 26.7027C6.81959 27.5625 8.63834 27.9925 11.1708 27.9925C14.6471 27.9925 16.8457 27.1443 17.7666 25.4479C18.0889 24.8669 18.2501 23.9606 18.2501 22.729V20.777C17.6515 21.265 17.1105 21.6601 16.627 21.9622C14.8313 23.1008 12.7133 23.6702 10.2729 23.6702C9.83549 23.6702 9.35203 23.6353 8.82252 23.5656C8.29301 23.4959 7.60234 23.3564 6.75052 23.1473C5.8987 22.9382 5.04688 22.5664 4.19506 22.0319C3.34324 21.4742 2.62955 20.8003 2.054 20.0102C1.018 18.5926 0.5 16.9311 0.5 15.0256C0.5 13.8404 0.684177 12.7483 1.05253 11.749C1.37484 10.8892 1.80075 10.1224 2.33026 9.44845C2.88279 8.77454 3.49288 8.25168 4.16053 7.87987C4.82817 7.48483 5.46128 7.17111 6.05986 6.93873C6.68145 6.68311 7.33759 6.50883 8.02825 6.41587C8.71892 6.29968 9.23691 6.22997 9.58225 6.20673C9.92758 6.18349 10.2844 6.17188 10.6528 6.17188C13.0471 6.17188 15.1306 6.64826 16.9033 7.60102C17.0875 7.71721 17.5364 8.0193 18.2501 8.5073V6.48559H21.3926V22.5199ZM18.181 14.7816C18.181 13.8521 17.9623 12.969 17.5249 12.1324C16.9263 10.9938 16.0054 10.1572 14.7622 9.62273C13.519 9.06502 12.1953 8.8094 10.7909 8.85587C8.85705 8.90235 7.22248 9.46007 5.88719 10.529C4.57492 11.598 3.91879 13.0852 3.91879 14.9907C3.91879 15.8041 4.05693 16.5361 4.33319 17.1867C4.67852 18.0233 5.1735 18.7204 5.81812 19.2782C6.46274 19.8359 7.16492 20.2193 7.92465 20.4284C8.68438 20.6144 9.27145 20.7422 9.68585 20.8119C10.1233 20.8584 10.5377 20.8816 10.929 20.8816C12.6787 20.8816 14.1752 20.4865 15.4184 19.6964C17.2601 18.4881 18.181 16.8498 18.181 14.7816Z" fill="black"/>
</g>
</svg>
