<svg width="21" height="24" viewBox="0 0 21 24" fill="none" xmlns="http://www.w3.org/2000/svg">
    <g clip-path="url(#clip0_393_4354)">
        <path d="M13.3479 2.83656L13.1173 2.79814C11.1211 2.47823 9.08656 2.47823 7.09035 2.79814L6.86042 2.83656C6.43815 2.83656 6.09253 2.4911 6.09253 2.06882V1.67207C6.09253 1.2498 6.43815 0.90433 6.86042 0.90433L7.09035 0.865905C9.08656 0.546001 11.1211 0.546001 13.1173 0.865905L13.3479 0.90433C13.7701 0.90433 14.1157 1.2498 14.1157 1.67207V2.06882C14.1157 2.4911 13.7701 2.83656 13.3479 2.83656Z" fill="#F2F2F2"/>
        <path d="M13.3479 3.05418L13.1173 3.01591C11.1211 2.69601 9.08656 2.69601 7.09035 3.01591L6.86042 3.05418C6.43815 3.05418 6.09253 2.70872 6.09253 2.28644V1.88984C6.09253 1.46757 6.43815 1.12195 6.86042 1.12195L7.09035 1.08368C9.08656 0.763774 11.1211 0.763774 13.1173 1.08368L13.3479 1.12195C13.7701 1.12195 14.1157 1.46757 14.1157 1.88984V2.28644C14.1157 2.70872 13.7701 3.05418 13.3479 3.05418Z" fill="black"/>
        <path d="M11.5691 3.39979V2.70875C11.5691 1.9455 10.9504 1.32666 10.1872 1.32666H10.008C9.24478 1.32666 8.6261 1.9455 8.6261 2.70875V3.39979C8.6261 4.16304 9.24478 4.78187 10.008 4.78187H10.1872C10.9504 4.78187 11.5691 4.16304 11.5691 3.39979Z" fill="black"/>
        <path d="M18.73 4.24472L18.8589 4.34961C19.375 4.76953 19.4431 5.5176 19.0312 6.02383L17.9249 7.38372C17.8603 7.46312 17.7521 7.47413 17.6727 7.40953L15.9754 6.02866C15.896 5.96406 15.8852 5.85632 15.9498 5.77691L17.0562 4.41703C17.4761 3.90087 18.2237 3.83288 18.73 4.24472Z" fill="black"/>
        <path d="M5.25294 5.93633L3.5556 7.31719C3.47619 7.3818 3.36803 7.37079 3.30343 7.29138L2.1971 5.9315C1.77718 5.41534 1.86312 4.669 2.36935 4.25715L2.49828 4.15227C3.01444 3.73234 3.7608 3.81806 4.17264 4.3243L5.27897 5.68418C5.34358 5.76359 5.33235 5.87173 5.25294 5.93633Z" fill="black"/>
        <path d="M10.635 23.8863C16.1969 23.8863 20.7058 19.3775 20.7058 13.8157C20.7058 8.25386 16.1969 3.74512 10.635 3.74512C5.07322 3.74512 0.564941 8.25386 0.564941 13.8157C0.564941 19.3775 5.07322 23.8863 10.635 23.8863Z" fill="black"/>
        <path d="M11.288 14.0589H17.9035C18.249 14.0589 18.5177 13.7645 18.4921 13.4062C18.185 9.56739 15.1137 6.50909 11.2749 6.18919C10.9294 6.1636 10.6226 6.43226 10.6226 6.77776V13.3934C10.6226 13.7645 10.9169 14.0589 11.288 14.0589Z" fill="#F2F2F2"/>
    </g>
    <defs>
        <clipPath id="clip0_393_4354">
            <rect width="21" height="24" fill="white"/>
        </clipPath>
    </defs>
</svg>
