<svg width="33" height="37" viewBox="0 0 33 37" fill="none" xmlns="http://www.w3.org/2000/svg">
    <path d="M29.6479 5.05762H3.35126C1.88783 5.05762 0.70166 6.27394 0.70166 7.77436V33.6284C0.70166 35.1288 1.88783 36.3452 3.35126 36.3452H29.6479C31.1113 36.3452 32.2981 35.1288 32.2981 33.6284V7.77436C32.2981 6.27394 31.1113 5.05762 29.6479 5.05762Z" fill="black"/>
    <path d="M8.52533 0.654297C9.68068 0.654297 10.6224 1.61996 10.6224 2.80451V5.5985C10.6224 5.77876 10.4846 5.93326 10.2962 5.93326H6.75444C6.57863 5.93326 6.42822 5.79163 6.42822 5.5985V2.80451C6.42822 1.61996 7.36998 0.654297 8.52533 0.654297Z" fill="black"/>
    <path d="M24.9262 0.654297C26.0816 0.654297 27.0233 1.61996 27.0233 2.80451V5.5985C27.0233 5.77876 26.8855 5.93326 26.6971 5.93326H23.1553C22.9795 5.93326 22.8291 5.79163 22.8291 5.5985V2.80451C22.8291 1.61996 23.7709 0.654297 24.9262 0.654297Z" fill="black"/>
    <path d="M15.1186 26.5211C14.6916 26.5211 14.2774 26.3151 14.0136 25.9546L10.535 21.152C10.0829 20.534 10.2082 19.6456 10.811 19.1821C11.4137 18.7185 12.2806 18.8473 12.7327 19.4782L15.1057 22.7486L20.2547 15.4868C20.6942 14.8559 21.5608 14.7271 22.1636 15.1778C22.7789 15.6284 22.9048 16.5168 22.4652 17.1348L16.2236 25.9417C15.9724 26.3022 15.5581 26.5211 15.1186 26.5211Z" fill="white"/>
</svg>
