<svg width="22" height="24" viewBox="0 0 22 24" fill="none" xmlns="http://www.w3.org/2000/svg">
    <g clip-path="url(#clip0_407_3221)">
        <path d="M3.38086 3.09079C3.38086 3.09079 7.59122 0.838663 12.7737 3.09079C15.9855 4.48557 18.4552 4.15299 19.8628 3.69233C20.5154 3.47479 21.1936 3.98666 21.1936 4.67765V13.4046C21.1936 13.8012 20.9634 14.1595 20.6051 14.3387C19.2487 14.9913 15.7681 16.2197 12.2876 13.8396C7.8345 10.7941 3.38086 13.5965 3.38086 13.5965V3.1036V3.09079Z" fill="white"/>
        <mask id="mask0_407_3221" style="mask-type:luminance" maskUnits="userSpaceOnUse" x="3" y="2" width="19" height="14">
            <path d="M3.38086 3.09079C3.38086 3.09079 7.59122 0.838663 12.7737 3.09079C15.9855 4.48557 18.4552 4.15299 19.8628 3.69233C20.5154 3.47479 21.1936 3.98666 21.1936 4.67765V13.4046C21.1936 13.8012 20.9634 14.1595 20.6051 14.3387C19.2487 14.9913 15.7681 16.2197 12.2876 13.8396C7.8345 10.7941 3.38086 13.5965 3.38086 13.5965V3.1036V3.09079Z" fill="white"/>
        </mask>
        <g mask="url(#mask0_407_3221)">
            <path d="M7.66736 5.50959V-0.542969L3.16309 -0.40223L3.20183 6.17501C4.3023 5.80393 5.81192 5.34324 7.66736 5.50959Z" fill="black"/>
            <path d="M3.16309 10.2697V15.4392H7.66736V9.34823C5.82472 9.23307 4.26356 9.73225 3.16309 10.2825V10.2697Z" fill="black"/>
            <path d="M7.6416 9.33592C8.6397 9.31033 10.2904 9.45115 12.1459 10.8459V6.81511C12.1459 6.81511 12.0308 6.7768 11.9797 6.73842C10.1626 5.7787 8.94681 5.62503 7.6416 5.49707V9.32327V9.33592Z" fill="black"/>
            <path d="M16.5864 12.3813C18.3523 12.5477 20.0158 12.1255 21.385 11.7033V7.73633C20.0798 8.1586 18.4035 8.325 16.5864 8.10747V12.3941V12.3813Z" fill="black"/>
            <path d="M16.6121 8.10683V0.0708008L12.1079 0.21154V6.80159C13.669 7.54377 15.1918 7.94048 16.6121 8.10683Z" fill="black"/>
            <path d="M12.197 10.8072C12.197 10.8072 12.1204 10.7561 12.082 10.7305V15.9641H16.5863V12.3044C15.2683 12.3428 13.6685 11.7285 12.197 10.8072Z" fill="black"/>
        </g>
        <path d="M2.66483 23.3346C1.92266 23.3346 1.33398 22.7332 1.33398 22.0038V2.09306C1.33398 1.35088 1.93545 0.762207 2.66483 0.762207C3.39422 0.762207 3.99506 1.36368 3.99506 2.09306V22.0038C3.99506 22.746 3.39422 23.3346 2.66483 23.3346Z" fill="white"/>
    </g>
    <defs>
        <clipPath id="clip0_407_3221">
            <rect width="21" height="24" fill="white" transform="translate(0.5)"/>
        </clipPath>
    </defs>
</svg>
