<svg width="33" height="32" viewBox="0 0 33 32" fill="none" xmlns="http://www.w3.org/2000/svg">
    <path d="M16.5137 32C25.3428 32 32.5 24.8365 32.5 16C32.5 7.16345 25.3428 0 16.5137 0C7.6846 0 0.526855 7.16345 0.526855 16C0.526855 24.8365 7.6846 32 16.5137 32Z" fill="black"/>
    <path d="M20.2582 20.8604C19.9771 20.8604 19.6955 20.7581 19.4782 20.5407L11.9899 13.0459C11.5554 12.611 11.5554 11.9075 11.9899 11.4726C12.4244 11.0378 13.1272 11.0378 13.5617 11.4726L21.05 18.9676C21.4845 19.4024 21.4845 20.1058 21.05 20.5407C20.8328 20.7581 20.5518 20.8604 20.2707 20.8604H20.2582Z" fill="white"/>
    <path d="M12.7693 20.8604C12.4881 20.8604 12.2072 20.7581 11.9899 20.5407C11.5554 20.1058 11.5554 19.4024 11.9899 18.9676L19.4782 11.4726C19.9127 11.0378 20.6156 11.0378 21.05 11.4726C21.4845 11.9075 21.4845 12.611 21.05 13.0459L13.5617 20.5407C13.3445 20.7581 13.0635 20.8604 12.7824 20.8604H12.7693Z" fill="white"/>
</svg>
