<svg width="38" height="50" viewBox="0 0 38 50" fill="none" xmlns="http://www.w3.org/2000/svg">
    <g clip-path="url(#clip0_393_5675)">
        <path d="M6.99947 29.5352C5.94834 36.2312 10.698 41.6425 19.1069 41.6425C26.9708 41.6425 32.2006 36.8411 31.2144 29.5352C30.2411 22.4628 25.79 17.4277 19.1069 17.4277C12.4239 17.4277 8.03761 22.93 6.99947 29.5352Z" fill="black"/>
        <path d="M7.79085 18.6734C5.22144 14.0536 5.57188 9.87507 7.85579 9.05753C10.2825 8.20107 13.1114 11.3025 13.9938 16.4542C14.8632 21.5152 15.9662 25.3953 14.2273 25.9144C13.3968 26.1609 10.2175 23.0465 7.77786 18.6604L7.79085 18.6734Z" fill="black"/>
        <path d="M28.7354 18.6734C31.3048 14.0536 30.9546 9.87507 28.6707 9.05753C26.2441 8.20107 23.4148 11.3025 22.5324 16.4542C21.663 21.5152 20.56 25.3953 22.2989 25.9144C23.1294 26.1609 26.3087 23.0465 28.7483 18.6604L28.7354 18.6734Z" fill="black"/>
    </g>
    <defs>
        <clipPath id="clip0_393_5675">
            <rect width="26" height="33" fill="white" transform="translate(6 8.91602)"/>
        </clipPath>
    </defs>
</svg>
