<svg width="38" height="38" viewBox="0 0 38 38" fill="none" xmlns="http://www.w3.org/2000/svg">
    <path d="M19 37.3312C29.0391 37.3312 37.1776 29.1958 37.1776 19.1602C37.1776 9.12469 29.0391 0.989258 19 0.989258C8.9608 0.989258 0.822266 9.12469 0.822266 19.1602C0.822266 29.1958 8.9608 37.3312 19 37.3312Z" fill="#999999"/>
    <path d="M16.9008 25.9237C16.2589 25.9237 15.6559 25.6157 15.2836 25.1024L11.4324 19.918C10.7649 19.0197 10.9572 17.7621 11.843 17.0948C12.7288 16.4275 13.9999 16.62 14.6674 17.5055L16.8883 20.4826L22.1899 13.2065C22.8446 12.3083 24.1029 12.1029 25.0143 12.7574C25.9129 13.4119 26.1184 14.6823 25.4637 15.5806L18.5568 25.0895C18.1846 25.6028 17.5815 25.9237 16.9397 25.9237H16.9008Z" fill="#F2F2F2"/>
</svg>
