<svg width="30" height="29" viewBox="0 0 30 29" fill="none" xmlns="http://www.w3.org/2000/svg">
<g id="Group">
<path id="Vector" d="M14.9398 28.9C22.727 28.9 29.0399 22.5873 29.0399 14.8C29.0399 7.01283 22.727 0.699951 14.9398 0.699951C7.1526 0.699951 0.839844 7.01283 0.839844 14.8C0.839844 22.5873 7.1526 28.9 14.9398 28.9Z" fill="#DCFF5C"/>
<path id="Vector_2" d="M13.7497 20.8199C13.2497 20.8199 12.7897 20.5899 12.4897 20.1899L9.49973 16.17C8.97973 15.48 9.12968 14.5 9.81968 13.98C10.5197 13.46 11.4997 13.61 12.0097 14.3L13.7297 16.61L17.8397 10.96C18.3497 10.26 19.3298 10.11 20.0298 10.61C20.7298 11.12 20.8797 12.1 20.3797 12.8L15.0198 20.17C14.7298 20.57 14.2597 20.8099 13.7597 20.8199H13.7497Z" fill="black"/>
</g>
</svg>
