<svg width="21" height="20" viewBox="0 0 21 20" fill="none" xmlns="http://www.w3.org/2000/svg">
    <path opacity="0.67" d="M18.6983 4.07095H2.30159C1.23419 4.07095 0.372559 3.20932 0.372559 2.14192C0.372559 1.07452 1.23419 0.212891 2.30159 0.212891H18.6983C19.7657 0.212891 20.6274 1.07452 20.6274 2.14192C20.6274 3.20932 19.7657 4.07095 18.6983 4.07095Z" fill="#4B4A4A"/>
    <path opacity="0.67" d="M18.6983 11.9289H2.30159C1.23419 11.9289 0.372559 11.0672 0.372559 9.99983C0.372559 8.93243 1.23419 8.0708 2.30159 8.0708H18.6983C19.7657 8.0708 20.6274 8.93243 20.6274 9.99983C20.6274 11.0672 19.7657 11.9289 18.6983 11.9289Z" fill="#4B4A4A"/>
    <path opacity="0.67" d="M18.6983 19.7873H2.30159C1.23419 19.7873 0.372559 18.9256 0.372559 17.8582C0.372559 16.7908 1.23419 15.9292 2.30159 15.9292H18.6983C19.7657 15.9292 20.6274 16.7908 20.6274 17.8582C20.6274 18.9256 19.7657 19.7873 18.6983 19.7873Z" fill="#4B4A4A"/>
</svg>
