<svg width="16" height="17" viewBox="0 0 16 17" fill="none" xmlns="http://www.w3.org/2000/svg">
    <path d="M13.8446 2.06055H1.26725C0.567321 2.06055 0 2.62801 0 3.32794V15.3885C0 16.0884 0.567321 16.6559 1.26725 16.6559H13.8446C14.5445 16.6559 15.1118 16.0884 15.1118 15.3885V3.32794C15.1118 2.62801 14.5445 2.06055 13.8446 2.06055Z" fill="#ABABAB"/>
    <path d="M3.73592 0C4.2885 0 4.73892 0.450426 4.73892 1.00301V2.30648C4.73892 2.39056 4.67285 2.46265 4.58275 2.46265H2.88908C2.80499 2.46265 2.73291 2.39657 2.73291 2.30648V1.00301C2.73291 0.450426 3.18334 0 3.73592 0Z" fill="#ABABAB"/>
    <path d="M11.5862 0C12.1387 0 12.5892 0.450426 12.5892 1.00301V2.30648C12.5892 2.39056 12.5231 2.46265 12.433 2.46265H10.7392C10.6551 2.46265 10.583 2.39657 10.583 2.30648V1.00301C10.583 0.450426 11.0336 0 11.5862 0Z" fill="#ABABAB"/>
    <path d="M11.1297 6.84117H3.97007C3.68177 6.84117 3.45361 6.60701 3.45361 6.32471C3.45361 6.04242 3.68778 5.80811 3.97007 5.80811H11.1297C11.418 5.80811 11.6462 6.04242 11.6462 6.32471C11.6462 6.60701 11.412 6.84117 11.1297 6.84117Z" fill="white"/>
    <path d="M11.1298 9.88024H3.9702C3.68189 9.88024 3.45374 9.64607 3.45374 9.36378C3.45374 9.08148 3.6879 8.84717 3.9702 8.84717H11.1298C11.4181 8.84717 11.6463 9.08148 11.6463 9.36378C11.6463 9.64607 11.4121 9.88024 11.1298 9.88024Z" fill="white"/>
    <path d="M11.1298 12.9134H3.9702C3.68189 12.9134 3.45374 12.6791 3.45374 12.3968C3.45374 12.1145 3.6879 11.8804 3.9702 11.8804H11.1298C11.4181 11.8804 11.6463 12.1145 11.6463 12.3968C11.6463 12.6791 11.4121 12.9134 11.1298 12.9134Z" fill="white"/>
</svg>
