<svg width="21" height="24" viewBox="0 0 21 24" fill="none" xmlns="http://www.w3.org/2000/svg">
<path id="Vector" d="M9.58004 0.217153L0.553824 6.96461C0.213932 7.21638 0 7.66958 0 8.14794V22.2472C0 23.0277 0.528659 23.6445 1.19585 23.6445H6.5208C7.1754 23.6445 7.71696 23.0151 7.71696 22.2472V18.7601C7.71696 18.3447 8.00651 17.9922 8.35899 17.9922H12.3999C12.7524 17.9922 13.0419 18.3321 13.0419 18.7601V22.2472C13.0419 23.0277 13.5706 23.6445 14.2378 23.6445H19.2732C19.9278 23.6445 20.469 23.0151 20.469 22.2472V8.14794C20.469 7.66958 20.2551 7.21638 19.9152 6.96461L10.8893 0.217153C10.4991 -0.0723843 10.0081 -0.0723843 9.61785 0.217153H9.58004Z" fill="#8F8B8B"/>
</svg>
