<svg width="21" height="25" viewBox="0 0 21 25" fill="none" xmlns="http://www.w3.org/2000/svg">
<g id="Group">
<path id="Vector" d="M13.2237 2.51013L12.9852 2.47155C10.9257 2.12391 8.81595 2.12391 6.75642 2.47155L6.51758 2.51013C6.07804 2.51013 5.72656 2.14961 5.72656 1.69897V1.27413C5.72656 0.823489 6.07804 0.462968 6.51758 0.462968L6.75642 0.424304C8.81595 0.0766644 10.9257 0.0766644 12.9852 0.424304L13.2237 0.462968C13.6633 0.462968 14.0151 0.823489 14.0151 1.27413V1.69897C14.0151 2.14961 13.6633 2.51013 13.2237 2.51013Z" fill="#CCCCCC"/>
<path id="Vector_2" d="M13.2237 2.74207L12.9852 2.70348C10.9257 2.35584 8.81595 2.35584 6.75642 2.70348L6.51758 2.74207C6.07804 2.74207 5.72656 2.38155 5.72656 1.9309V1.50607C5.72656 1.05542 6.07804 0.694902 6.51758 0.694902L6.75642 0.656237C8.81595 0.308598 10.9257 0.308598 12.9852 0.656237L13.2237 0.694902C13.6633 0.694902 14.0151 1.05542 14.0151 1.50607V1.9309C14.0151 2.38155 13.6633 2.74207 13.2237 2.74207Z" fill="#8F8B8B"/>
<path id="Vector_3" d="M11.3904 3.84923V1.63468C11.3904 1.23647 11.0755 0.913574 10.6871 0.913574L9.05459 0.913574C8.66619 0.913574 8.35133 1.23647 8.35133 1.63468V3.84923C8.35133 4.24745 8.66619 4.57034 9.05459 4.57034H10.6871C11.0755 4.57034 11.3904 4.24745 11.3904 3.84923Z" fill="#8F8B8B"/>
<path id="Vector_4" d="M18.6709 4.19189C19.2359 4.66317 19.3213 5.51452 18.8616 6.09381L17.7759 7.46213C17.7046 7.55202 17.581 7.56516 17.4933 7.49203L15.7593 6.04566C15.6716 5.97253 15.659 5.84578 15.7303 5.75589L16.8161 4.38757C17.2757 3.80828 18.1059 3.72061 18.6709 4.19189Z" fill="#8F8B8B"/>
<path id="Vector_5" d="M4.91746 6.01959L3.18344 7.46595C3.09576 7.53908 2.97216 7.52594 2.90083 7.43605L1.81508 6.06773C1.35542 5.48844 1.44084 4.63709 2.00585 4.16581C2.57086 3.69453 3.401 3.7822 3.86066 4.36149L4.94641 5.72981C5.01774 5.8197 5.00514 5.94646 4.91746 6.01959Z" fill="#8F8B8B"/>
<path id="Vector_6" d="M10.4107 24.8364C16.1604 24.8364 20.8215 20.0575 20.8215 14.1626C20.8215 8.26757 16.1604 3.48877 10.4107 3.48877C4.66108 3.48877 0 8.26757 0 14.1626C0 20.0575 4.66108 24.8364 10.4107 24.8364Z" fill="#8F8B8B"/>
<path id="Vector_7" d="M11.1015 14.4073H17.9457C18.3098 14.4073 18.5861 14.0854 18.5484 13.7249C18.2219 9.65622 15.0573 6.41159 11.089 6.07682C10.7248 6.05107 10.4233 6.33431 10.4233 6.69482V13.712C10.4233 14.0983 10.7248 14.4073 11.1015 14.4073Z" fill="black"/>
</g>
</svg>
