<svg width="33" height="32" viewBox="0 0 33 32" fill="none" xmlns="http://www.w3.org/2000/svg">
    <path d="M16.5138 32C25.3429 32 32.5 24.8365 32.5 16C32.5 7.16345 25.3429 0 16.5138 0C7.68466 0 0.526917 7.16345 0.526917 16C0.526917 24.8365 7.68466 32 16.5138 32Z" fill="#898989"/>
    <path d="M20.2584 20.8604C19.9773 20.8604 19.6957 20.7581 19.4784 20.5407L11.9901 13.0459C11.5556 12.611 11.5556 11.9075 11.9901 11.4726C12.4246 11.0378 13.1274 11.0378 13.5619 11.4726L21.0502 18.9676C21.4847 19.4024 21.4847 20.1058 21.0502 20.5407C20.833 20.7581 20.552 20.8604 20.2709 20.8604H20.2584Z" fill="#1A1A1A"/>
    <path d="M12.7695 20.8604C12.4883 20.8604 12.2074 20.7581 11.9901 20.5407C11.5556 20.1058 11.5556 19.4024 11.9901 18.9676L19.4784 11.4726C19.9129 11.0378 20.6157 11.0378 21.0502 11.4726C21.4847 11.9075 21.4847 12.611 21.0502 13.0459L13.5619 20.5407C13.3447 20.7581 13.0637 20.8604 12.7826 20.8604H12.7695Z" fill="#1A1A1A"/>
</svg>
