<svg width="23" height="25" viewBox="0 0 23 25" fill="none" xmlns="http://www.w3.org/2000/svg">
<g id="Group">
<path id="Vector" d="M20.3276 3.2876H2.3069C1.30816 3.2876 0.498291 4.1177 0.498291 5.14168V22.8712C0.498291 23.8952 1.30816 24.7253 2.3069 24.7253H20.3276C21.3264 24.7253 22.1359 23.8952 22.1359 22.8712V5.14168C22.1359 4.1177 21.3264 3.2876 20.3276 3.2876Z" fill="#8F8B8B"/>
<path id="Vector_2" d="M5.86057 0.274902C6.65173 0.274902 7.29237 0.931574 7.29237 1.74273V3.66117C7.29237 3.78993 7.19168 3.89293 7.0661 3.89293H4.64246C4.51688 3.89293 4.4165 3.78993 4.4165 3.66117V1.74273C4.4165 0.931574 5.05683 0.274902 5.848 0.274902H5.86057Z" fill="#8F8B8B"/>
<path id="Vector_3" d="M17.1004 0.274902C17.8915 0.274902 18.5319 0.931574 18.5319 1.74273V3.66117C18.5319 3.78993 18.4315 3.89293 18.3059 3.89293H15.882C15.7564 3.89293 15.656 3.78993 15.656 3.66117V1.74273C15.656 0.931574 16.2966 0.274902 17.0878 0.274902H17.1004Z" fill="#8F8B8B"/>
<path id="Vector_4" d="M10.3815 17.9916C10.0801 17.9916 9.80372 17.85 9.62791 17.6054L7.24198 14.3092C6.92803 13.8843 7.01581 13.2791 7.43023 12.9701C7.84465 12.6482 8.43493 12.7384 8.73633 13.1633L10.3564 15.4036L13.8853 10.4208C14.1867 9.99589 14.777 9.89292 15.1914 10.2148C15.6058 10.5238 15.7062 11.1289 15.3922 11.5538L11.11 17.5925C10.9342 17.8371 10.6578 17.9916 10.3564 17.9916H10.3815Z" fill="black"/>
</g>
</svg>
