<svg width="24" height="26" viewBox="0 0 24 26" fill="none" xmlns="http://www.w3.org/2000/svg">
    <path opacity="0.71" d="M11.9999 22.8281C17.2466 22.8281 21.5 18.5747 21.5 13.328C21.5 8.0813 17.2466 3.82812 11.9999 3.82812C6.75317 3.82812 2.5 8.0813 2.5 13.328C2.5 18.5747 6.75317 22.8281 11.9999 22.8281Z" fill="#E6E6E6"/>
    <path opacity="0.68" d="M15.5097 17.8281C15.215 17.8281 14.9204 17.734 14.6649 17.5352L11.6189 15.2445C11.2259 14.9516 11 14.4702 11 13.9681V9.39715C11 8.52896 11.6583 7.82812 12.4738 7.82812C13.2893 7.82812 13.9476 8.52896 13.9476 9.39715V13.1525L16.3745 14.983C17.0426 15.4851 17.1997 16.4577 16.7281 17.169C16.4432 17.5979 15.9912 17.8281 15.5196 17.8281H15.5097Z" fill="#333333"/>
</svg>
