<svg width="47" height="49" viewBox="0 0 47 49" fill="none" xmlns="http://www.w3.org/2000/svg">
<g id="Group 18">
<path id="Vector" d="M23.568 48.5038C36.5092 48.5038 47.0002 37.757 47.0002 24.5002C47.0002 11.2434 36.5092 0.496582 23.568 0.496582C10.6268 0.496582 0.135986 11.2434 0.135986 24.5002C0.135986 37.757 10.6268 48.5038 23.568 48.5038Z" fill="#F5F5F5"/>
<g id="Group">
<path id="Vector_2" d="M28.4323 25.9065H18.336C17.7502 25.9065 17.2815 25.3951 17.2815 24.7726C17.2815 24.15 17.757 23.6387 18.336 23.6387H28.4323C29.0181 23.6387 29.4868 24.15 29.4868 24.7726C29.4868 25.3951 29.0112 25.9065 28.4323 25.9065Z" fill="black"/>
<path id="Vector_3" d="M23.3804 31.3393C22.7946 31.3393 22.3259 30.8279 22.3259 30.2054V19.3478C22.3259 18.7178 22.8015 18.2139 23.3804 18.2139C23.9593 18.2139 24.4348 18.7252 24.4348 19.3478V30.2054C24.4348 30.8354 23.9593 31.3393 23.3804 31.3393Z" fill="black"/>
</g>
</g>
</svg>
