<svg width="38" height="37" viewBox="0 0 38 37" fill="none" xmlns="http://www.w3.org/2000/svg">
    <path d="M21.7976 8.4707H7.93457C3.96662 8.4707 0.75 11.8348 0.75 15.9847V29.4858C0.75 33.6357 3.96662 36.9998 7.93457 36.9998H21.7976C25.7656 36.9998 28.9825 33.6357 28.9825 29.4858V15.9847C28.9825 11.8348 25.7656 8.4707 21.7976 8.4707Z" fill="black"/>
    <path d="M14.5266 27.0664C13.6014 27.0664 12.7194 26.6581 12.1122 25.9324C11.5051 25.2219 11.2159 24.2846 11.3171 23.3472L11.9679 17.2694C12.0546 16.5135 12.387 15.7879 12.9074 15.2587L25.0502 2.83113C25.5417 2.33221 26.1923 2.04492 26.8862 2.04492C27.5801 2.04492 28.2306 2.31709 28.7221 2.83113L34.8804 9.13553C35.3863 9.64957 35.661 10.33 35.661 11.0708C35.661 11.8116 35.3863 12.492 34.8804 13.006L22.7375 25.4336C22.2171 25.9628 21.5375 26.2954 20.8147 26.3861L14.8735 27.0514C14.7579 27.0514 14.6423 27.0664 14.5266 27.0664Z" fill="white"/>
    <path d="M25.3539 4.84093L14.0058 16.4371C13.7312 16.7092 13.5721 17.072 13.5287 17.4499L12.8782 23.5277C12.7626 24.6162 13.6589 25.5234 14.7142 25.4024L20.6557 24.7373C21.0316 24.6919 21.3784 24.5255 21.6531 24.2534L33.0008 12.6574C33.4056 12.2341 33.4056 11.5537 33.0008 11.1455L26.8426 4.84093C26.4378 4.41761 25.7731 4.41761 25.3539 4.84093Z" fill="black"/>
    <path d="M35.3721 9.95191L36.6874 8.62146C38.1041 7.18517 38.1041 4.84184 36.6874 3.40556L34.4036 1.07721C32.987 -0.359071 30.7029 -0.359071 29.3006 1.07721L27.9994 2.40767C27.6091 2.80076 27.6091 3.4508 27.9994 3.85901L33.9844 9.96705C34.3747 10.3601 35.0107 10.3601 35.401 9.96705L35.3721 9.95191Z" fill="black"/>
</svg>
