<svg width="23" height="25" viewBox="0 0 23 25" fill="none" xmlns="http://www.w3.org/2000/svg">
<path d="M20.3276 3.0127H2.3069C1.30816 3.0127 0.498291 3.8428 0.498291 4.86678V22.5963C0.498291 23.6203 1.30816 24.4504 2.3069 24.4504H20.3276C21.3264 24.4504 22.1359 23.6203 22.1359 22.5963V4.86678C22.1359 3.8428 21.3264 3.0127 20.3276 3.0127Z" fill="#FF4F4F"/>
<path d="M5.86057 0C6.65173 0 7.29237 0.656671 7.29237 1.46783V3.38627C7.29237 3.51503 7.19168 3.61802 7.0661 3.61802H4.64246C4.51688 3.61802 4.4165 3.51503 4.4165 3.38627V1.46783C4.4165 0.656671 5.05683 0 5.848 0H5.86057Z" fill="#FF4F4F"/>
<path d="M17.1004 0C17.8915 0 18.5319 0.656671 18.5319 1.46783V3.38627C18.5319 3.51503 18.4315 3.61802 18.3059 3.61802H15.882C15.7564 3.61802 15.656 3.51503 15.656 3.38627V1.46783C15.656 0.656671 16.2966 0 17.0878 0H17.1004Z" fill="#FF4F4F"/>
<path d="M10.3815 17.7167C10.0801 17.7167 9.80372 17.5751 9.62791 17.3304L7.24198 14.0343C6.92803 13.6094 7.01581 13.0042 7.43023 12.6952C7.84465 12.3733 8.43493 12.4635 8.73633 12.8884L10.3564 15.1287L13.8853 10.1459C14.1867 9.72098 14.777 9.61801 15.1914 9.9399C15.6058 10.2489 15.7062 10.854 15.3922 11.2789L11.11 17.3176C10.9342 17.5622 10.6578 17.7167 10.3564 17.7167H10.3815Z" fill="black"/>
</svg>
