<svg width="22" height="25" viewBox="0 0 22 25" fill="none" xmlns="http://www.w3.org/2000/svg">
<path id="Vector" d="M10.5099 0.417904L1.3424 7.43509C0.990771 7.70547 0.777344 8.16902 0.777344 8.67117V23.3492C0.777344 24.1604 1.31729 24.8042 1.98288 24.8042H7.38294C8.04852 24.8042 8.58847 24.1475 8.58847 23.3492V19.7183C8.58847 19.2806 8.87733 18.92 9.24152 18.92H13.3355C13.6997 18.92 13.9885 19.2806 13.9885 19.7183V23.3492C13.9885 24.1604 14.5285 24.8042 15.1941 24.8042H20.2927C20.9583 24.8042 21.4983 24.1475 21.4983 23.3492V8.67117C21.4983 8.16902 21.2848 7.70547 20.9332 7.43509L11.7657 0.417904C11.3764 0.121766 10.8615 0.121766 10.4722 0.417904H10.5099Z" fill="#FF4F4F"/>
</svg>
