<svg width="19" height="19" viewBox="0 0 19 19" fill="none" xmlns="http://www.w3.org/2000/svg">
    <path d="M2.09506 18.354C1.5035 18.354 0.925139 18.0968 0.526473 17.6595C0.140667 17.2223 -0.0521103 16.6436 0.0121906 16.0649L0.423491 12.2969C0.474931 11.8211 0.693831 11.3837 1.0282 11.0494L8.89816 3.34612C9.21966 3.03747 9.64427 2.85742 10.0944 2.85742C10.5445 2.85742 10.9691 3.02461 11.2906 3.34612L15.2768 7.25566C15.5983 7.57717 15.7785 8.00162 15.7785 8.45173C15.7785 8.90184 15.5983 9.32614 15.2768 9.64764L7.4068 17.3509C7.07244 17.6852 6.62205 17.8911 6.15909 17.9426L2.31422 18.354C2.23705 18.354 2.15967 18.354 2.08251 18.354H2.09506Z" fill="white"/>
    <path d="M9.10385 4.59347L1.74754 11.7823C1.5675 11.9495 1.46494 12.1809 1.43922 12.4124L1.02792 16.1805C0.950761 16.8492 1.52937 17.415 2.21096 17.3378L6.05583 16.9264C6.30017 16.9006 6.53166 16.7978 6.69884 16.6177L14.0551 9.42892C14.3252 9.17171 14.3252 8.74719 14.0551 8.48999L10.0684 4.5806C9.7983 4.32339 9.37391 4.32339 9.10385 4.5806V4.59347Z" fill="#FF4F4F"/>
    <path d="M15.1355 8.87606C14.7111 8.87606 14.3252 8.70891 14.0165 8.42599L10.1459 4.64501C9.83726 4.34922 9.66992 3.95056 9.66992 3.52618C9.66992 3.10179 9.83726 2.70313 10.1459 2.40735L10.9949 1.58428C11.6122 0.979848 12.435 0.645508 13.3095 0.645508C14.1839 0.645508 14.9942 0.979848 15.6115 1.58428L17.0903 3.03748C17.7204 3.64191 18.0548 4.465 18.0548 5.32664C18.0548 6.18827 17.7076 6.9985 17.0903 7.61579L16.2413 8.43886C15.9455 8.73464 15.5473 8.88894 15.1229 8.88894L15.1355 8.87606Z" fill="white"/>
    <path d="M15.5981 7.75663L16.4471 6.93356C17.3602 6.0462 17.3602 4.59298 16.4471 3.69276L14.9683 2.25243C14.0552 1.36508 12.5765 1.36508 11.6635 2.25243L10.8145 3.0755C10.5573 3.31984 10.5573 3.71845 10.8145 3.97565L14.6851 7.75663C14.9423 8.00097 15.3538 8.00097 15.5981 7.75663Z" fill="#FF4F4F"/>
</svg>
