<svg width="17" height="23" viewBox="0 0 17 23" fill="none" xmlns="http://www.w3.org/2000/svg">
<g id="Group 19">
<path id="Vector" d="M0.630588 14.8156C-0.0327355 19.0488 2.97013 22.486 8.28878 22.4739C13.2697 22.4739 16.5865 19.4347 15.9473 14.8156C15.3081 10.1964 12.522 7.15723 8.28878 7.15723C4.05557 7.15723 1.28185 10.6427 0.630588 14.8156Z" fill="#FF4F4F"/>
<path id="Vector_2" d="M1.13712 6.16817C-0.491036 3.23748 -0.273913 0.596205 1.17334 0.0896671C2.71707 -0.453052 4.50198 1.5128 5.05676 4.76912C5.61154 8.02543 6.31089 10.4254 5.20133 10.7631C4.67067 10.9199 2.66878 8.95413 1.12505 6.18024L1.13712 6.16817Z" fill="#FF4F4F"/>
<path id="Vector_3" d="M15.264 6.16817C16.8922 3.23748 16.675 0.596205 15.2278 0.0896671C13.6841 -0.453052 11.8992 1.5128 11.3444 4.76912C10.8017 7.96513 10.0899 10.4254 11.1995 10.7631C11.7302 10.9199 13.7323 8.95413 15.2761 6.18024L15.264 6.16817Z" fill="#FF4F4F"/>
</g>
</svg>
