<svg width="21" height="25" viewBox="0 0 21 25" fill="none" xmlns="http://www.w3.org/2000/svg">
<path d="M13.2237 2.34656L12.9852 2.30797C10.9257 1.96034 8.81595 1.96034 6.75642 2.30797L6.51758 2.34656C6.07804 2.34656 5.72656 1.98604 5.72656 1.5354V1.11056C5.72656 0.659915 6.07804 0.299394 6.51758 0.299394L6.75642 0.26073C8.81595 -0.0869099 10.9257 -0.0869099 12.9852 0.26073L13.2237 0.299394C13.6633 0.299394 14.0151 0.659915 14.0151 1.11056V1.5354C14.0151 1.98604 13.6633 2.34656 13.2237 2.34656Z" fill="#CCCCCC"/>
<path d="M13.2237 2.57849L12.9852 2.53991C10.9257 2.19227 8.81595 2.19227 6.75642 2.53991L6.51758 2.57849C6.07804 2.57849 5.72656 2.21797 5.72656 1.76733V1.34249C5.72656 0.891849 6.07804 0.531328 6.51758 0.531328L6.75642 0.492663C8.81595 0.145024 10.9257 0.145024 12.9852 0.492663L13.2237 0.531328C13.6633 0.531328 14.0151 0.891849 14.0151 1.34249V1.76733C14.0151 2.21797 13.6633 2.57849 13.2237 2.57849Z" fill="#FF4F4F"/>
<path d="M11.3904 3.68566V1.47111C11.3904 1.07289 11.0755 0.75 10.6871 0.75L9.05459 0.75C8.66619 0.75 8.35133 1.07289 8.35133 1.47111V3.68566C8.35133 4.08387 8.66619 4.40677 9.05459 4.40677H10.6871C11.0755 4.40677 11.3904 4.08387 11.3904 3.68566Z" fill="#FF4F4F"/>
<path d="M18.6709 4.02831C19.2359 4.49959 19.3213 5.35095 18.8616 5.93024L17.7759 7.29855C17.7046 7.38844 17.581 7.40159 17.4933 7.32846L15.7593 5.88209C15.6716 5.80896 15.659 5.6822 15.7303 5.59231L16.8161 4.224C17.2757 3.64471 18.1059 3.55703 18.6709 4.02831Z" fill="#FF4F4F"/>
<path d="M4.91746 5.85601L3.18344 7.30238C3.09576 7.37551 2.97216 7.36237 2.90083 7.27248L1.81508 5.90416C1.35542 5.32487 1.44084 4.47352 2.00585 4.00224C2.57086 3.53096 3.401 3.61863 3.86066 4.19792L4.94641 5.56624C5.01774 5.65613 5.00514 5.78288 4.91746 5.85601Z" fill="#FF4F4F"/>
<path d="M10.4107 24.6729C16.1604 24.6729 20.8215 19.894 20.8215 13.999C20.8215 8.104 16.1604 3.3252 10.4107 3.3252C4.66108 3.3252 0 8.104 0 13.999C0 19.894 4.66108 24.6729 10.4107 24.6729Z" fill="#FF4F4F"/>
<path d="M11.1015 14.2437H17.9457C18.3098 14.2437 18.5861 13.9218 18.5484 13.5613C18.2219 9.49265 15.0573 6.24801 11.089 5.91325C10.7248 5.8875 10.4233 6.17073 10.4233 6.53125V13.5484C10.4233 13.9347 10.7248 14.2437 11.1015 14.2437Z" fill="black"/>
</svg>
