<svg width="40" height="40" viewBox="0 0 40 40" fill="none" xmlns="http://www.w3.org/2000/svg">
    <path d="M19.7663 39.7658C30.6828 39.7658 39.5319 30.9162 39.5319 19.9997C39.5319 9.08314 30.6828 0.233398 19.7663 0.233398C8.84974 0.233398 0 9.08314 0 19.9997C0 30.9162 8.84974 39.7658 19.7663 39.7658Z" fill="#FF4F4F"/>
    <path d="M24.2655 25.9522C23.8926 25.9522 23.5192 25.8108 23.2363 25.5279L13.4241 15.7155C12.8583 15.1497 12.8583 14.2236 13.4241 13.6578C13.99 13.0919 14.9032 13.0919 15.4819 13.6578L25.2941 23.4701C25.8599 24.036 25.8599 24.962 25.2941 25.5279C25.0112 25.8108 24.6385 25.9522 24.2655 25.9522Z" fill="white"/>
    <path d="M14.4527 25.9522C14.0798 25.9522 13.7071 25.8108 13.4241 25.5279C12.8583 24.962 12.8583 24.036 13.4241 23.4701L23.2363 13.6578C23.8022 13.0919 24.7154 13.0919 25.2941 13.6578C25.8728 14.2236 25.8599 15.1497 25.2941 15.7155L15.4819 25.5279C15.199 25.8108 14.8257 25.9522 14.4527 25.9522Z" fill="white"/>
</svg>
