<svg width="21" height="25" viewBox="0 0 21 25" fill="none" xmlns="http://www.w3.org/2000/svg">
    <path d="M2.88086 3.59079C2.88086 3.59079 7.09122 1.33866 12.2737 3.59079C15.4855 4.98557 17.9552 4.65299 19.3628 4.19233C20.0154 3.97479 20.6936 4.48666 20.6936 5.17765V13.9046C20.6936 14.3012 20.4634 14.6595 20.1051 14.8387C18.7487 15.4913 15.2681 16.7197 11.7876 14.3396C7.3345 11.2941 2.88086 14.0965 2.88086 14.0965V3.6036V3.59079Z" fill="white"/>
    <mask id="mask0_393_4341" style="mask-type:luminance" maskUnits="userSpaceOnUse" x="2" y="2" width="19" height="14">
        <path d="M2.88086 3.59079C2.88086 3.59079 7.09122 1.33866 12.2737 3.59079C15.4855 4.98557 17.9552 4.65299 19.3628 4.19233C20.0154 3.97479 20.6936 4.48666 20.6936 5.17765V13.9046C20.6936 14.3012 20.4634 14.6595 20.1051 14.8387C18.7487 15.4913 15.2681 16.7197 11.7876 14.3396C7.3345 11.2941 2.88086 14.0965 2.88086 14.0965V3.6036V3.59079Z" fill="white"/>
    </mask>
    <g mask="url(#mask0_393_4341)">
        <path d="M7.1676 6.00959V-0.0429688L2.66333 0.0977702L2.70207 6.67501C3.80254 6.30393 5.31216 5.84324 7.1676 6.00959Z" fill="black"/>
        <path d="M2.66333 10.7697V15.9392H7.1676V9.84823C5.32496 9.73307 3.7638 10.2322 2.66333 10.7825V10.7697Z" fill="black"/>
        <path d="M7.14209 9.83592C8.14019 9.81033 9.79092 9.95115 11.6464 11.3459V7.31511C11.6464 7.31511 11.5313 7.2768 11.4802 7.23842C9.66311 6.2787 8.4473 6.12503 7.14209 5.99707V9.82327V9.83592Z" fill="black"/>
        <path d="M16.0869 12.8813C17.8528 13.0477 19.5163 12.6255 20.8855 12.2033V8.23633C19.5803 8.6586 17.904 8.825 16.0869 8.60747V12.8941V12.8813Z" fill="black"/>
        <path d="M16.1124 8.60683V0.570801L11.6082 0.71154V7.30159C13.1693 8.04377 14.6921 8.44048 16.1124 8.60683Z" fill="black"/>
        <path d="M11.6975 11.3072C11.6975 11.3072 11.6209 11.2561 11.5825 11.2305V16.4641H16.0868V12.8044C14.7688 12.8428 13.169 12.2285 11.6975 11.3072Z" fill="black"/>
    </g>
    <path d="M2.16483 23.8346C1.42266 23.8346 0.833984 23.2332 0.833984 22.5038V2.59306C0.833984 1.85088 1.43545 1.26221 2.16483 1.26221C2.89422 1.26221 3.49506 1.86368 3.49506 2.59306V22.5038C3.49506 23.246 2.89422 23.8346 2.16483 23.8346Z" fill="black"/>
</svg>
