<svg width="26" height="28" viewBox="0 0 26 28" fill="none" xmlns="http://www.w3.org/2000/svg">
<path d="M23.4031 3.4541H2.59643C1.43853 3.4541 0.5 4.40832 0.5 5.58542V25.8682C0.5 27.0453 1.43853 27.9996 2.59643 27.9996H23.4031C24.561 27.9996 25.5 27.0453 25.5 25.8682V5.58542C25.5 4.40832 24.561 3.4541 23.4031 3.4541Z" fill="#F2F2F2"/>
<path d="M6.6903 0C7.60444 0 8.34959 0.757574 8.34959 1.68687V3.87879C8.34959 4.0202 8.24052 4.14141 8.09148 4.14141H5.28912C5.15001 4.14141 5.03101 4.0303 5.03101 3.87879V1.68687C5.03101 0.757574 5.77615 0 6.6903 0Z" fill="#F2F2F2"/>
<path d="M19.6672 0C20.5814 0 21.3265 0.757574 21.3265 1.68687V3.87879C21.3265 4.0202 21.2175 4.14141 21.0684 4.14141H18.266C18.1269 4.14141 18.0079 4.0303 18.0079 3.87879V1.68687C18.0079 0.757574 18.7531 0 19.6672 0Z" fill="#F2F2F2"/>
<path d="M11.9071 20.2925C11.5692 20.2925 11.2414 20.1309 11.0328 19.8481L8.28039 16.0804C7.92268 15.5956 8.02177 14.8986 8.49872 14.5349C8.97566 14.1713 9.66154 14.2723 10.0192 14.7673L11.8969 17.3329L15.9709 11.636C16.3186 11.141 17.0043 11.04 17.4812 11.3935C17.9681 11.7471 18.0677 12.444 17.7199 12.9289L12.7813 19.838C12.5826 20.1208 12.2548 20.2925 11.9071 20.2925Z" fill="#1A1A1A"/>
</svg>
