<svg width="43" height="50" viewBox="0 0 43 50" fill="none" xmlns="http://www.w3.org/2000/svg">
    <path d="M34.6672 11.4148H32.0412V9.20354C32.0412 8.04766 31.099 7.10547 29.9431 7.10547C28.7873 7.10547 27.8449 8.04766 27.8449 9.20354V11.4148H15.6203V9.20354C15.6203 8.04766 14.678 7.10547 13.5221 7.10547C12.3662 7.10547 11.424 8.04766 11.424 9.20354V11.4148H8.34578C6.88837 11.4148 5.69482 12.5959 5.69482 14.0659V39.3065C5.69482 40.7639 6.87581 41.9576 8.34578 41.9576H34.6546C36.112 41.9576 37.3056 40.7765 37.3056 39.3065V14.0659C37.3056 12.6085 36.1246 11.4148 34.6546 11.4148H34.6672Z" fill="white"/>
    <path fill-rule="evenodd" clip-rule="evenodd" d="M14.3052 27.8882C14.3052 27.3359 14.7529 26.8882 15.3052 26.8882H28.3954C28.9477 26.8882 29.3954 27.3359 29.3954 27.8882C29.3954 28.4405 28.9477 28.8882 28.3954 28.8882H15.3052C14.7529 28.8882 14.3052 28.4405 14.3052 27.8882Z" fill="black"/>
    <path fill-rule="evenodd" clip-rule="evenodd" d="M21.8438 20.958C22.396 20.958 22.8438 21.4057 22.8438 21.958V33.8183C22.8438 34.3706 22.396 34.8183 21.8438 34.8183C21.2915 34.8183 20.8438 34.3706 20.8438 33.8183V21.958C20.8438 21.4057 21.2915 20.958 21.8438 20.958Z" fill="black"/>
</svg>
